<svg width="800" height="600" viewBox="0 0 800 600" xmlns="http://www.w3.org/2000/svg">
  <rect width="800" height="600" fill="#ffffff" />

  <rect x="250" y="40" width="300" height="90" rx="10" fill="#1d4e89" stroke="#0d325a" stroke-width="2"/>
  <text x="400" y="70" font-family="Arial" font-size="16" font-weight="bold" text-anchor="middle" fill="white">Load Balancer</text>
  <text x="400" y="90" font-family="Arial" font-size="14" text-anchor="middle" fill="white">(HAProxy + Keepalived)</text>
  <text x="400" y="115" font-family="Arial" font-size="13" text-anchor="middle" fill="white">IP: 10.1.10.63 | VIP: 10.1.10.7</text>

  <g id="control-planes">
    <rect x="50" y="200" width="180" height="80" rx="5" fill="#a2d2ff" stroke="#4a90e2" stroke-width="2"/>
    <text x="140" y="235" font-family="Arial" font-size="14" font-weight="bold" text-anchor="middle">Control-Plane 1</text>
    <text x="140" y="255" font-family="Arial" font-size="12" text-anchor="middle">10.1.10.66</text>
    
    <rect x="310" y="200" width="180" height="80" rx="5" fill="#a2d2ff" stroke="#4a90e2" stroke-width="2"/>
    <text x="400" y="235" font-family="Arial" font-size="14" font-weight="bold" text-anchor="middle">Control-Plane 2</text>
    <text x="400" y="255" font-family="Arial" font-size="12" text-anchor="middle">10.1.10.67</text>
    
    <rect x="570" y="200" width="180" height="80" rx="5" fill="#a2d2ff" stroke="#4a90e2" stroke-width="2"/>
    <text x="660" y="235" font-family="Arial" font-size="14" font-weight="bold" text-anchor="middle">Control-Plane 3</text>
    <text x="660" y="255" font-family="Arial" font-size="12" text-anchor="middle">10.1.10.69</text>
  </g>

  <g id="workers">
    <rect x="180" y="380" width="440" height="180" rx="10" fill="#f8f9fa" stroke="#dee2e6" stroke-width="2" stroke-dasharray="5,5"/>
    <text x="400" y="405" font-family="Arial" font-size="16" font-weight="bold" text-anchor="middle" fill="#6c757d">Application Nodes (Workers)</text>
    
    <rect x="210" y="430" width="170" height="100" rx="5" fill="#c7f9cc" stroke="#57cc99" stroke-width="2"/>
    <text x="295" y="465" font-family="Arial" font-size="14" font-weight="bold" text-anchor="middle">Worker 1</text>
    <text x="295" y="485" font-family="Arial" font-size="12" text-anchor="middle">10.1.10.65</text>
    <text x="295" y="510" font-family="Arial" font-size="11" text-anchor="middle" fill="#2d6a4f">WordPress + MySQL</text>

    <rect x="420" y="430" width="170" height="100" rx="5" fill="#c7f9cc" stroke="#57cc99" stroke-width="2"/>
    <text x="505" y="465" font-family="Arial" font-size="14" font-weight="bold" text-anchor="middle">Worker 2</text>
    <text x="505" y="485" font-family="Arial" font-size="12" text-anchor="middle">10.1.10.68</text>
    <text x="505" y="510" font-family="Arial" font-size="11" text-anchor="middle" fill="#2d6a4f">WordPress + MySQL</text>
  </g>

  <rect x="20" y="430" width="130" height="100" rx="5" fill="#e9ecef" stroke="#adb5bd" stroke-width="2"/>
  <text x="85" y="465" font-family="Arial" font-size="13" font-weight="bold" text-anchor="middle">Stockage</text>
  <text x="85" y="485" font-family="Arial" font-size="11" text-anchor="middle">HostPath /</text>
  <text x="85" y="500" font-family="Arial" font-size="11" text-anchor="middle">NFS Autofs</text>

  <g stroke="#6c757d" stroke-width="2" fill="none">
    <path d="M400 130 L140 200" />
    <path d="M400 130 L400 200" />
    <path d="M400 130 L660 200" />
    <path d="M400 280 L400 380" />
    <path d="M150 480 L210 480" />
  </g>

  <path d="M230 240 L310 240" stroke="#4a90e2" stroke-width="1" stroke-dasharray="2,2"/>
  <path d="M490 240 L570 240" stroke="#4a90e2" stroke-width="1" stroke-dasharray="2,2"/>
  <text x="400" y="295" font-family="Arial" font-size="10" text-anchor="middle" fill="#4a90e2">Réplication Etcd</text>
</svg>